<?xml version="1.0"?>
<svg xmlns="http://www.w3.org/2000/svg" id="Filled_stroke_cutting_Ex" data-name="Filled stroke cutting Ex" width="512" height="512" viewBox="0 0 512 512"><rect x="40" y="248" width="432" height="216" style="fill:#dcf9fe"/><g><path d="M468,488H44a20,20,0,0,1-20-20V448H176l16,8H320l16-8H488v20A20,20,0,0,1,468,488Z" style="fill:#79d8eb"/><path d="M112,424H72a8,8,0,0,1-8-8V384H80v24h32Z"/></g><g><path d="M296,184A136,136,0,1,0,98.4,305.2817L128,376l52.4067-57.5215A136.0317,136.0317,0,0,0,296,184Z" style="fill:#f3f3f3"/><path d="M224,224V96a72,72,0,0,0-72-72h0A72,72,0,0,0,80,96V224Z" style="fill:#fa7d29"/><path d="M243.4277,226.9712,176,200H128L60.5723,226.9712A20,20,0,0,0,48,245.5406v15.63a136.6207,136.6207,0,0,0,50.4,44.1115L128,376l52.4067-57.5215A135.6314,135.6314,0,0,0,256,280.3317V245.5406A20,20,0,0,0,243.4277,226.9712Z" style="fill:#fac850"/><path d="M165.2075,72.17A48.0191,48.0191,0,0,1,120,104h-8v36.6761a20,20,0,0,0,9.71,17.15l13.1472,7.8884L128,200l24,32,24-32-6.8572-34.2856L182.29,157.826a20,20,0,0,0,9.71-17.15V102A30.0039,30.0039,0,0,0,165.2075,72.17Z" style="fill:#ffd4cf"/><polygon points="192 248 176 200 152 232 192 248" style="fill:#fffdfa"/><polygon points="112 248 128 200 152 232 112 248" style="fill:#fffdfa"/><path d="M219.2979,52.7393l-.0125.0275A79.9787,79.9787,0,0,0,77.9932,65.6179,144.04,144.04,0,0,0,92.1367,311.0371L120.62,379.0889a8.0006,8.0006,0,0,0,13.294,2.2988l50.5234-55.4551a143.3618,143.3618,0,0,0,26.3867-7.1611l-5.6484-14.97a127.343,127.343,0,0,1-25.96,6.7656,8.0011,8.0011,0,0,0-4.7236,2.5234l-43.9561,48.2471L105.78,302.1929a8.0011,8.0011,0,0,0-3.751-4.041A128.1375,128.1375,0,0,1,54.0518,256H56V245.5405a11.943,11.943,0,0,1,7.543-11.1416l51.4126-20.5652L104.41,245.47a8,8,0,0,0,10.56,9.9575L152,240.616l37.0293,14.8117a8,8,0,0,0,10.56-9.9575l-10.5454-31.6365,39.9849,15.9939,5.9414-14.8554L232,213.7839V96a79.8864,79.8864,0,0,0-2.3826-19.416,129.13,129.13,0,0,1,43.3572,47.186l14.1113-7.54A145.0824,145.0824,0,0,0,219.2979,52.7393ZM72,96V213.7841l-14.3984,5.7594A27.879,27.879,0,0,0,42.2671,234.446a128.3413,128.3413,0,0,1,29.894-143.55Q72.0007,93.4276,72,96Zm64.5459,102.061,3.97-19.8468a27.9282,27.9282,0,0,0,22.9682,0l3.97,19.8468L152,218.6663Zm21.6279-35.0947a11.9788,11.9788,0,0,1-12.3476,0l-20-12A12.06,12.06,0,0,1,120,140.6763V112a56.06,56.06,0,0,0,49.8762-30.5507A22.0828,22.0828,0,0,1,184,102v38.6763a12.06,12.06,0,0,1-5.8262,10.29Zm-27.4131,54.0483,8.576,11.4346-14.2928,5.7168Zm33.9026,11.4346,8.576-11.4346,5.7168,17.1514ZM216,207.3839,182.9949,194.182l-4.9019-24.5079,8.3132-4.9881A28.1416,28.1416,0,0,0,200,140.6763V102a38.1431,38.1431,0,0,0-24.95-35.696A56.1007,56.1007,0,0,0,176,56H160a40.0455,40.0455,0,0,1-40,40h-8V72H96v32a8,8,0,0,0,8,8v28.6763a28.1416,28.1416,0,0,0,13.5938,24.01l8.3132,4.9881-4.9019,24.5079L88,207.384V96a64,64,0,0,1,128,0Z"/></g><g><g><path d="M360,160A128.1035,128.1035,0,0,0,237.0486,323.7126L208,376h59.0488A128,128,0,1,0,360,160Z" style="fill:#f3f3f3"/><g><g><path d="M435.0225,331.1334,384,312H336l-51.0225,19.1334A20,20,0,0,0,272,349.86v31.0907a127.9983,127.9983,0,0,0,176,0V349.86A20,20,0,0,0,435.0225,331.1334Z" style="fill:#79d8eb"/><polygon points="384 344 361 328 336 344 352 368 336 416 384 416 368 368 384 344" style="fill:#fa5d3f"/><path d="M320,184v68.6761a20,20,0,0,0,9.71,17.15l12.2255,7.3354L328,312l32,16,32-16-13.9355-34.8386L390.29,269.826a20,20,0,0,0,9.71-17.15V184Z" style="fill:#ffd4cf"/><path d="M368,152h10a30,30,0,0,1,30,30v18a0,0,0,0,1,0,0H368a0,0,0,0,1,0,0V152A0,0,0,0,1,368,152Z" style="fill:#d63924"/></g><path d="M296,136h42a30,30,0,0,1,30,30v34a0,0,0,0,1,0,0H326a30,30,0,0,1-30-30V136A0,0,0,0,1,296,136Z" transform="translate(664 336) rotate(-180)" style="fill:#fa5d3f"/></g></g><polygon points="344 352 304 352 328 312 360 328 344 340 344 352" style="fill:#fffdfa"/><polygon points="376 352 416 352 392 312 360 328 376 340 376 352" style="fill:#fffdfa"/><g><path d="M488,440h-8V392H464v48H336a8,8,0,0,0-3.5781.8447L318.1113,448H193.8887l-14.3106-7.1553A8,8,0,0,0,176,440H128v16h46.1113l14.3106,7.1553A8,8,0,0,0,192,464H320a8,8,0,0,0,3.5781-.8447L337.8887,456H480v12a12.0134,12.0134,0,0,1-12,12H44a12.0134,12.0134,0,0,1-12-12V456h80V440H48V296H32V440H24a8,8,0,0,0-8,8v20a28.0314,28.0314,0,0,0,28,28H468a28.0314,28.0314,0,0,0,28-28V448A8,8,0,0,0,488,440Z"/><path d="M208,384h55.666A134.6924,134.6924,0,0,0,360,424c74.99,0,136-61.0093,136-136a136.0533,136.0533,0,0,0-86.0332-126.5258A38.0033,38.0033,0,0,0,378,144h-9.0325A37.98,37.98,0,0,0,338,128H296a8,8,0,0,0-8,8v34q0,1.2852.0852,2.55A136.2077,136.2077,0,0,0,228.4658,322.688l-27.459,49.4267A8,8,0,0,0,208,384Zm152,24a123.1,123.1,0,0,1-12.6829-.6527L357.7656,376h4.4688l10.4443,31.3345A120.8781,120.8781,0,0,1,360,408Zm80-30.631a119.8437,119.8437,0,0,1-51.3828,27.1829L375.59,365.47A8.0006,8.0006,0,0,0,368,360H352a8.0006,8.0006,0,0,0-7.59,5.47L331.366,404.6028A118.4413,118.4413,0,0,1,280,377.4578V349.86a12.0554,12.0554,0,0,1,7.7861-11.2359l19.2378-7.2141L297.14,347.8838A8,8,0,0,0,304,360h40V344H318.13l12.9187-21.5314,25.3733,12.6867a8.0007,8.0007,0,0,0,7.1562,0l25.3733-12.6867L401.87,344H376v16h40a8,8,0,0,0,6.86-12.1162L412.9761,331.41l19.2368,7.2138A12.0549,12.0549,0,0,1,440,349.86ZM338.1614,308.1362l7.7138-19.2845a27.9424,27.9424,0,0,0,28.25,0l7.7138,19.2845L360,319.0557ZM376,160h2a22.0248,22.0248,0,0,1,22,22v10H376Zm16,48v16h16V208a8,8,0,0,0,8-8V182c0-.0587-.001-.1172-.001-.1759A119.9647,119.9647,0,0,1,456,359.9236V349.86a28.1312,28.1312,0,0,0-18.1689-26.2173l-38.0845-14.2815-.5581-.93-11.1656-27.9146,6.3833-3.83A28.1416,28.1416,0,0,0,408,252.6763V240H392v12.6763a12.06,12.06,0,0,1-5.8262,10.29l-20,12a11.9788,11.9788,0,0,1-12.3476,0l-20-12A12.06,12.06,0,0,1,328,252.6763V208Zm-88-64h34a22.0248,22.0248,0,0,1,22,22v26H326a22.0248,22.0248,0,0,1-22-22ZM244.042,327.5977a8.0005,8.0005,0,0,0,.69-6.1138,120.193,120.193,0,0,1,48.106-132.9424A38.2308,38.2308,0,0,0,312,205.3276v47.3487a28.1416,28.1416,0,0,0,13.5938,24.01l6.3833,3.83-11.1656,27.9146-.5581.93L282.168,323.6426A28.1316,28.1316,0,0,0,264,349.86V368H221.5957Z"/></g><path d="M368,376H352a7.9992,7.9992,0,0,1-6.6562-3.5625l-16-24a7.9989,7.9989,0,0,1,2.3437-11.1758l25-16a8,8,0,0,1,8.8809.1709l23,16a8,8,0,0,1,2.0878,11.0049l-16,24A7.9992,7.9992,0,0,1,368,376Zm-11.7188-16h7.4376l9.2744-13.9116-12.1787-8.4717-13.6368,8.7275Z"/></g></svg>
